<svg width="58" height="58" viewBox="0 0 58 58" fill="none" xmlns="http://www.w3.org/2000/svg">
<g clip-path="url(#clip0_135_437)">
<path d="M49.7734 41.7964C47.5201 38.5187 44.3029 36.1711 40.6526 35.1409L40.5388 35.1143L37.9089 39.9235C37.9072 40.5638 37.6716 41.1774 37.2537 41.6302C36.8357 42.083 36.2694 42.3382 35.6784 42.3401C34.4515 42.3401 33.4478 41.2526 32.2767 38.0529V37.9756C32.2767 37.1744 31.9829 36.4061 31.4601 35.8396C30.9372 35.273 30.228 34.9548 29.4885 34.9548C28.749 34.9548 28.0398 35.273 27.5169 35.8396C26.994 36.4061 26.7002 37.1744 26.7002 37.9756V38.0554V38.0505C25.4511 41.2526 24.4384 42.3377 23.2138 42.3377C22.6228 42.3358 22.0564 42.0806 21.6385 41.6278C21.2206 41.175 20.985 40.5614 20.9832 39.921L18.4359 35.1022C14.7604 36.115 11.5138 38.456 9.2325 41.7384L9.20127 41.7843C8.29699 43.3866 7.79345 45.2165 7.74023 47.0937V47.1106C7.75138 47.4731 7.74023 47.896 7.74023 48.3189V53.1523C7.74023 54.4342 8.21025 55.6635 9.04688 56.57C9.88351 57.4764 11.0182 57.9856 12.2014 57.9856H46.7755C47.9587 57.9856 49.0934 57.4764 49.9301 56.57C50.7667 55.6635 51.2367 54.4342 51.2367 53.1523V48.3189C51.2367 47.8984 51.2256 47.4731 51.2367 47.1106C51.1805 45.212 50.6685 43.362 49.7511 41.7432L49.7757 41.7915L49.7734 41.7964ZM17.7757 12.7843C17.7757 19.8409 21.8353 30.2084 29.4862 30.2084C37.0033 30.2084 41.1968 19.8409 41.1968 12.7843V12.6272C41.1968 10.9611 40.8939 9.31122 40.3054 7.7719C39.7169 6.23258 38.8543 4.83392 37.7669 3.65578C36.6795 2.47764 35.3885 1.54308 33.9677 0.905476C32.5469 0.267869 31.0241 -0.0603027 29.4862 -0.0603027C27.9484 -0.0603027 26.4256 0.267869 25.0048 0.905476C23.584 1.54308 22.293 2.47764 21.2056 3.65578C20.1182 4.83392 19.2556 6.23258 18.6671 7.7719C18.0786 9.31122 17.7757 10.9611 17.7757 12.6272V12.7915V12.7843ZM42.8341 16.9409C42.8341 21.5374 45.4796 28.2944 50.4627 28.2944C55.3588 28.2944 58.0913 21.5399 58.0913 16.9409V16.8153C58.0913 14.6226 57.2873 12.5198 55.8563 10.9693C54.4252 9.41889 52.4843 8.54786 50.4605 8.54786C48.4366 8.54786 46.4957 9.41889 45.0646 10.9693C43.6336 12.5198 42.8296 14.6226 42.8296 16.8153V16.9482V16.9409H42.8341ZM0.00678051 20.8076C0.00678051 25.4041 2.65226 32.1611 7.63539 32.1611C12.5315 32.1611 15.264 25.4065 15.264 20.8076V20.6819C15.264 18.4893 14.46 16.3864 13.029 14.836C11.5979 13.2856 9.65699 12.4145 7.63316 12.4145C5.60934 12.4145 3.6684 13.2856 2.23734 14.836C0.806281 16.3864 0.00231934 18.4893 0.00231934 20.6819L0.00231934 20.8149V20.8076H0.00678051Z" fill="#8FABA6"/>
</g>
<defs>
<clipPath id="clip0_135_437">
<rect width="58" height="58" fill="white"/>
</clipPath>
</defs>
</svg>
