<svg width="58" height="58" viewBox="0 0 58 58" fill="none" xmlns="http://www.w3.org/2000/svg">
<g clip-path="url(#clip0_135_450)">
<path d="M57.4413 21.3535C55.3677 15.6826 48.5936 13.8081 43.9228 16.912L37.6653 11.7169C39.3566 6.22536 35.4055 0.184636 29.2626 0.00644472C22.9363 -0.177071 18.57 5.98169 20.3331 11.7095L14.0712 16.9081C9.25769 13.7094 2.31117 15.8326 0.43591 21.7117C-1.29639 27.1427 2.3558 32.4658 7.47657 33.3871L9.89931 42.0801C5.5731 45.8048 5.67811 52.9694 10.7453 56.4118C15.7652 59.822 22.3989 57.367 24.3499 52.0836H33.6349C35.6566 57.6203 42.7004 59.9374 47.6603 56.1085C52.4373 52.4209 52.1994 45.4112 47.857 41.892L50.3582 33.4156C55.7271 32.56 59.4672 26.8939 57.4413 21.3534M33.2589 47.1004H24.7322C23.7798 42.4187 19.1906 39.2448 14.4834 39.9667L12.5021 32.8571C17.3135 30.9212 19.4314 25.2597 17.319 20.6891L23.0599 15.9231C26.4088 18.8363 31.5531 18.8723 34.9338 15.927L40.6796 20.6974C38.5728 25.2552 40.6881 30.8197 45.3449 32.7955L43.2405 39.9271C38.5812 39.3453 34.1943 42.5543 33.2589 47.1004Z" fill="#8FABA6"/>
</g>
<defs>
<clipPath id="clip0_135_450">
<rect width="58" height="58" fill="white"/>
</clipPath>
</defs>
</svg>
