<svg width="58" height="58" viewBox="0 0 58 58" fill="none" xmlns="http://www.w3.org/2000/svg">
<path d="M29.2266 2.47974C29.1699 2.47974 29.0906 2.47974 29.0227 2.49333C28.5016 2.58962 27.8785 3.07106 27.4707 4.17103C27.0402 5.26985 26.9496 6.83653 27.3234 8.51423C27.7086 10.1715 28.5016 11.6 29.3852 12.4723C30.2461 13.3445 31.0277 13.5824 31.5488 13.4918C32.0926 13.4125 32.693 12.9141 33.1008 11.8266C33.5313 10.7345 33.6445 9.14634 33.2594 7.48224C32.8629 5.80567 32.0812 4.39079 31.1977 3.52419C30.45 2.75388 29.759 2.47974 29.2266 2.47974ZM42.2992 17.1508C41.0531 17.1848 39.4785 17.5133 37.9492 18.159C36.182 18.9293 34.8227 19.9602 34.075 20.9344C33.3273 21.8746 33.2594 22.5883 33.4973 23.0074C33.7465 23.4266 34.4375 23.8231 35.7629 23.8797C37.0883 23.959 38.8781 23.6305 40.634 22.8828C42.3898 22.1238 43.7719 21.0816 44.5195 20.1301C45.2672 19.1899 45.3238 18.4535 45.0859 18.0344C44.848 17.6039 44.1457 17.2301 42.8203 17.1848C42.6391 17.1508 42.4805 17.1508 42.2992 17.1508ZM26.859 27.6746C26.1113 27.6859 25.4316 27.7766 24.8199 27.9352C23.4832 28.275 22.7129 28.8867 22.4637 29.6231C22.1805 30.3594 22.4637 31.243 23.3473 32.1945C24.2762 33.1234 25.8055 34.0184 27.7086 34.5168C29.6004 35.0152 31.4242 35.0039 32.7836 34.6414C34.1543 34.2902 34.9246 33.6672 35.1738 32.9422C35.4344 32.2059 35.1738 31.3336 34.2562 30.3707C33.3613 29.4418 31.832 28.5469 29.9289 28.0598C28.8527 27.7766 27.7992 27.6633 26.859 27.6746ZM45.0633 34.2563L38.0625 37.5754C38.5383 37.5981 39.7277 37.632 39.7277 37.632L40.4754 38.6176L46.6719 35.3891L45.0633 34.2563ZM38.8895 34.2676L32.3871 37.3488C33.0102 37.3828 34.4828 37.4055 35.0719 37.4395L40.7133 34.766L38.8895 34.2676ZM49.3793 35.491L41.393 39.7277L43.0355 41.8461L51.475 36.7938L49.3793 35.491ZM17.7965 36.5219C17.4535 36.5212 17.1115 36.5592 16.777 36.6352C8.67734 38.5043 3.89687 38.6629 2.48086 38.6629H2.03906V50.8406C2.03906 50.8406 3.35313 50.6481 5.53945 50.6367C9.76484 50.6367 17.2074 51.3617 24.4574 55.5984C24.8426 55.8363 25.6695 55.927 26.7004 55.927C29.4531 55.927 33.6332 55.2699 34.5961 54.9074C44.293 51.2711 55.9609 41.291 55.9609 41.291L52.2793 38.0738C52.2793 38.0738 43.2395 43.8399 42.0953 44.3949C31.7754 49.4586 23.4152 46.2981 23.4152 46.2981C23.4152 46.2981 36.9977 46.6379 41.359 43.2055L38.7988 39.3539C38.7988 39.3539 29.4191 39.0934 26.0773 38.6516C24.3328 38.425 20.5605 36.5219 17.7965 36.5219Z" fill="#8FABA6"/>
</svg>
