<svg width="58" height="58" viewBox="0 0 58 58" fill="none" xmlns="http://www.w3.org/2000/svg">
<path d="M22.9354 25.0741C26.0052 21.4992 30.242 19.1272 34.8943 18.3787C35.4878 16.4742 35.4963 14.4354 34.9187 12.5261C34.3411 10.6167 33.2039 8.9245 31.6542 7.66837C30.1045 6.41225 28.2136 5.64995 26.226 5.48007C24.2384 5.31018 22.2455 5.74053 20.5051 6.71544C18.7647 7.69035 17.3568 9.16499 16.4636 10.9487C15.5703 12.7323 15.2327 14.743 15.4944 16.7206C15.7562 18.6982 16.6052 20.5518 17.9317 22.0416C19.2583 23.5315 21.0013 24.5891 22.9354 25.0777M18.125 38.0625C18.125 34.8 18.908 31.7187 20.3 29H12.6875C11.2454 29 9.86234 29.5728 8.84261 30.5926C7.82288 31.6123 7.25 32.9954 7.25 34.4375V36.25C7.25 42.7858 12.8869 49.4921 22.5548 50.5941C19.683 47.0494 18.1189 42.6244 18.125 38.0625ZM54.375 38.0625C54.375 40.2047 53.9531 42.3259 53.1333 44.305C52.3135 46.2841 51.1119 48.0824 49.5972 49.5971C48.0824 51.1119 46.2841 52.3135 44.305 53.1333C42.3259 53.953 40.2047 54.375 38.0625 54.375C35.9203 54.375 33.7991 53.953 31.82 53.1333C29.8409 52.3135 28.0426 51.1119 26.5278 49.5971C25.0131 48.0824 23.8115 46.2841 22.9917 44.305C22.1719 42.3259 21.75 40.2047 21.75 38.0625C21.75 33.7361 23.4686 29.587 26.5278 26.5278C29.587 23.4686 33.7362 21.75 38.0625 21.75C42.3888 21.75 46.538 23.4686 49.5972 26.5278C52.6564 29.587 54.375 33.7361 54.375 38.0625ZM39.788 28.4925C39.6833 28.1153 39.4579 27.7828 39.1462 27.5459C38.8346 27.309 38.454 27.1807 38.0625 27.1807C37.671 27.1807 37.2904 27.309 36.9788 27.5459C36.6671 27.7828 36.4417 28.1153 36.337 28.4925L34.6079 34.046H29C27.2455 34.046 26.5133 36.3913 27.9342 37.468L32.4655 40.9008L30.7364 46.4543C30.1926 48.1943 32.1066 49.6443 33.5276 48.5677L38.0589 45.1348L42.5901 48.5677C44.0111 49.6443 45.9251 48.1943 45.3814 46.4543L43.6522 40.9008L48.1835 37.468C49.6045 36.3913 48.8722 34.046 47.1178 34.046H41.5135L39.788 28.4925Z" fill="#8FABA6"/>
</svg>
