<svg width="58" height="58" viewBox="0 0 58 58" fill="none" xmlns="http://www.w3.org/2000/svg">
<path d="M9.66665 26.5833C10.2826 26.5839 10.8751 26.8198 11.323 27.2426C11.7709 27.6655 12.0404 28.2434 12.0765 28.8583C12.1126 29.4732 11.9125 30.0787 11.5172 30.551C11.1218 31.0234 10.5611 31.3269 9.9494 31.3997L9.66665 31.4166H7.24999C6.63403 31.4159 6.04158 31.18 5.59368 30.7572C5.14579 30.3344 4.87625 29.7564 4.84016 29.1415C4.80406 28.5266 5.00412 27.9212 5.39946 27.4488C5.7948 26.9765 6.35559 26.6729 6.96724 26.6002L7.24999 26.5833H9.66665ZM29 4.83325C29.5919 4.83333 30.1632 5.05065 30.6056 5.44398C31.0479 5.83732 31.3305 6.37931 31.3997 6.96717L31.4167 7.24992V9.66659C31.416 10.2825 31.1801 10.875 30.7573 11.3229C30.3344 11.7708 29.7565 12.0403 29.1416 12.0764C28.5267 12.1125 27.9212 11.9125 27.4489 11.5171C26.9765 11.1218 26.673 10.561 26.6002 9.94934L26.5833 9.66659V7.24992C26.5833 6.60898 26.8379 5.99429 27.2911 5.54108C27.7444 5.08786 28.359 4.83325 29 4.83325ZM50.75 26.5833C51.3659 26.5839 51.9584 26.8198 52.4063 27.2426C52.8542 27.6655 53.1237 28.2434 53.1598 28.8583C53.1959 29.4732 52.9959 30.0787 52.6005 30.551C52.2052 31.0234 51.6444 31.3269 51.0327 31.3997L50.75 31.4166H48.3333C47.7174 31.4159 47.1249 31.18 46.677 30.7572C46.2291 30.3344 45.9596 29.7564 45.9235 29.1415C45.8874 28.5266 46.0875 27.9212 46.4828 27.4488C46.8781 26.9765 47.4389 26.6729 48.0506 26.6002L48.3333 26.5833H50.75ZM11.8247 11.8247C12.2409 11.4086 12.7945 11.1586 13.3818 11.1217C13.9692 11.0848 14.5498 11.2634 15.0147 11.6241L15.2419 11.8247L16.9336 13.5163C17.367 13.9512 17.6186 14.5348 17.6374 15.1485C17.6561 15.7622 17.4406 16.3601 17.0345 16.8206C16.6284 17.2811 16.0622 17.5698 15.451 17.628C14.8398 17.6863 14.2293 17.5097 13.7436 17.1341L13.5164 16.9335L11.8247 15.2418C11.3717 14.7886 11.1172 14.1741 11.1172 13.5333C11.1172 12.8924 11.3717 12.2779 11.8247 11.8247ZM42.7581 11.8247C43.193 11.3912 43.7765 11.1396 44.3902 11.1209C45.004 11.1021 45.6018 11.3177 46.0623 11.7238C46.5229 12.1299 46.8116 12.696 46.8698 13.3072C46.928 13.9185 46.7514 14.5289 46.3758 15.0147L46.1752 15.2418L44.4836 16.9335C44.0487 17.3669 43.4651 17.6186 42.8514 17.6373C42.2377 17.656 41.6398 17.4405 41.1793 17.0344C40.7188 16.6283 40.4301 16.0622 40.3719 15.4509C40.3136 14.8397 40.4902 14.2292 40.8658 13.7435L41.0664 13.5163L42.7581 11.8247ZM33.8333 43.4999C34.4743 43.4999 35.0889 43.7545 35.5422 44.2077C35.9954 44.661 36.25 45.2756 36.25 45.9166C36.25 47.8394 35.4862 49.6835 34.1265 51.0431C32.7669 52.4028 30.9228 53.1666 29 53.1666C27.0772 53.1666 25.2331 52.4028 23.8735 51.0431C22.5138 49.6835 21.75 47.8394 21.75 45.9166C21.7501 45.3247 21.9674 44.7534 22.3607 44.311C22.7541 43.8687 23.296 43.5861 23.8839 43.5168L24.1667 43.4999H33.8333ZM29 14.4999C32.0433 14.4999 35.0094 15.4575 37.4783 17.2369C39.9471 19.0164 41.7935 21.5275 42.7559 24.4146C43.7183 27.3017 43.7478 30.4185 42.8404 33.3233C41.933 36.2282 40.1346 38.7739 37.7 40.5999C37.3669 40.8501 36.9748 41.0099 36.5617 41.0639L36.25 41.0833H21.75C21.2271 41.0833 20.7183 40.9137 20.3 40.5999C17.8654 38.7739 16.067 36.2282 15.1595 33.3233C14.2521 30.4185 14.2817 27.3017 15.2441 24.4146C16.2065 21.5275 18.0528 19.0164 20.5217 17.2369C22.9905 15.4575 25.9567 14.4999 29 14.4999Z" fill="#8FABA6"/>
</svg>
