<svg width="66" height="58" viewBox="0 0 66 58" fill="none" xmlns="http://www.w3.org/2000/svg">
<path d="M33.3506 9.65156L23.3681 18.5328C21.7078 20.0055 21.3881 22.6562 22.6462 24.548C23.9766 26.5645 26.565 26.9609 28.3491 25.4316L38.5894 16.6863C39.3113 16.0746 40.3425 16.2105 40.9097 17.0035C41.4769 17.7965 41.3428 18.9293 40.6209 19.5523L38.4656 21.3875L52.8 35.8875V14.5H52.7278L52.3256 14.2168L44.8387 8.94922C43.2609 7.83906 41.415 7.25 39.5381 7.25C37.29 7.25 35.1037 8.09961 33.3506 9.65156ZM35.7019 23.7437L30.3703 28.2977C27.1219 31.0844 22.4091 30.3594 19.9753 26.6891C17.6859 23.234 18.2634 18.4082 21.285 15.7234L29.865 8.09961C28.6688 7.54453 27.3797 7.26133 26.07 7.26133C24.1313 7.25 22.2441 7.88437 20.625 9.0625L13.2 14.5V39.875H16.1081L25.5338 49.3227C27.555 51.3504 30.6797 51.1918 32.5256 48.9715C33.0928 48.2805 33.4744 47.4762 33.6703 46.6379L35.4234 48.4051C37.4344 50.4328 40.5694 50.2855 42.4153 48.0766C42.8794 47.5215 43.2197 46.8758 43.4362 46.2074C45.4369 47.6801 48.1594 47.3742 49.8403 45.3578C51.6862 43.1488 51.5522 39.7051 49.5412 37.6773L35.7019 23.7437ZM1.65 14.5C0.7425 14.5 0 15.3156 0 16.3125V39.875C0 41.8801 1.47469 43.5 3.3 43.5H6.6C8.42531 43.5 9.9 41.8801 9.9 39.875V14.5H1.65ZM4.95 36.25C5.38761 36.25 5.80729 36.441 6.11673 36.7809C6.42616 37.1208 6.6 37.5818 6.6 38.0625C6.6 38.5432 6.42616 39.0042 6.11673 39.3441C5.80729 39.684 5.38761 39.875 4.95 39.875C4.51239 39.875 4.09271 39.684 3.78327 39.3441C3.47384 39.0042 3.3 38.5432 3.3 38.0625C3.3 37.5818 3.47384 37.1208 3.78327 36.7809C4.09271 36.441 4.51239 36.25 4.95 36.25ZM56.1 14.5V39.875C56.1 41.8801 57.5747 43.5 59.4 43.5H62.7C64.5253 43.5 66 41.8801 66 39.875V16.3125C66 15.3156 65.2575 14.5 64.35 14.5H56.1ZM59.4 38.0625C59.4 37.5818 59.5738 37.1208 59.8833 36.7809C60.1927 36.441 60.6124 36.25 61.05 36.25C61.4876 36.25 61.9073 36.441 62.2167 36.7809C62.5262 37.1208 62.7 37.5818 62.7 38.0625C62.7 38.5432 62.5262 39.0042 62.2167 39.3441C61.9073 39.684 61.4876 39.875 61.05 39.875C60.6124 39.875 60.1927 39.684 59.8833 39.3441C59.5738 39.0042 59.4 38.5432 59.4 38.0625Z" fill="#8FABA6"/>
</svg>
