<svg width="100" height="100" viewBox="0 0 100 100" fill="none" xmlns="http://www.w3.org/2000/svg">
<path d="M64.7971 35.2028L69.1966 36.0822C69.4329 36.1294 69.6271 36.3027 69.6954 36.5363C69.7298 36.6498 69.7329 36.7705 69.7043 36.8856C69.6756 37.0007 69.6163 37.1059 69.5326 37.1899L65.9285 40.7967C65.4966 41.2261 64.9127 41.4677 64.3036 41.4687H61.3138L53.8062 48.9788C53.9495 49.5196 53.9758 50.0848 53.8835 50.6365C53.7912 51.1883 53.5824 51.7141 53.2709 52.1789C52.9595 52.6436 52.5526 53.0366 52.0773 53.3318C51.6021 53.627 51.0694 53.8175 50.5147 53.8906C49.9601 53.9637 49.3962 53.9178 48.8607 53.756C48.3252 53.5941 47.8303 53.32 47.409 52.9518C46.9878 52.5837 46.6498 52.13 46.4176 51.621C46.1854 51.112 46.0644 50.5594 46.0625 49.9999C46.0624 49.3957 46.2013 48.7996 46.4685 48.2577C46.7357 47.7158 47.1241 47.2426 47.6035 46.8749C48.0829 46.5072 48.6405 46.2547 49.2332 46.137C49.8258 46.0193 50.4376 46.0396 51.0211 46.1963L58.5312 38.6836V35.6989C58.5312 35.0899 58.7727 34.5046 59.2032 34.0741L62.81 30.4673C62.8941 30.3837 62.9992 30.3243 63.1143 30.2957C63.2294 30.267 63.3501 30.2701 63.4636 30.3046C63.6972 30.3728 63.8705 30.5671 63.9177 30.8033L64.7971 35.2028Z" fill="#8FABA6"/>
<path d="M34.2499 50C34.2526 52.2521 34.7383 54.4775 35.6742 56.526C36.6101 58.5745 37.9744 60.3984 39.6751 61.8748C41.3758 63.3512 43.3734 64.4457 45.5331 65.0844C47.6928 65.7231 49.9643 65.8913 52.1945 65.5775C54.4247 65.2637 56.5616 64.4752 58.4612 63.2653C60.3607 62.0554 61.9787 60.4522 63.206 58.5638C64.4333 56.6754 65.2413 54.5458 65.5755 52.3186C65.9098 50.0914 65.7625 47.8184 65.1436 45.653C65.0567 45.4 65.0222 45.1319 65.0422 44.8652C65.0622 44.5985 65.1363 44.3386 65.2599 44.1014C65.3835 43.8642 65.5542 43.6546 65.7614 43.4854C65.9686 43.3163 66.2081 43.1911 66.4652 43.1174C66.7224 43.0438 66.9919 43.0232 67.2572 43.057C67.5226 43.0908 67.7783 43.1783 68.0087 43.3141C68.2392 43.4499 68.4396 43.6311 68.5978 43.8468C68.756 44.0626 68.8686 44.3082 68.9288 44.5688C70.1272 48.7623 69.8996 53.235 68.2816 57.2852C66.6637 61.3354 63.747 64.7339 59.9892 66.9475C56.2313 69.1611 51.8449 70.0647 47.5181 69.5163C43.1914 68.968 39.169 66.9988 36.0822 63.9177C32.9987 60.8316 31.0274 56.8089 30.4778 52.4812C29.9282 48.1534 30.8314 43.7656 33.0457 40.0068C35.2599 36.2479 38.6597 33.3309 42.7114 31.7135C46.763 30.0962 51.2371 29.8702 55.4311 31.0711C55.9305 31.2171 56.3518 31.5548 56.6029 32.0105C56.854 32.4661 56.9146 33.0027 56.7713 33.5028C56.6281 34.003 56.2927 34.4261 55.8384 34.6798C55.3841 34.9334 54.8479 34.9969 54.3469 34.8563C52.0017 34.1829 49.532 34.0636 47.1328 34.5077C44.7335 34.9519 42.4703 35.9475 40.5216 37.4159C38.5729 38.8843 36.992 40.7854 35.9036 42.9692C34.8152 45.1531 34.2491 47.5599 34.2499 50Z" fill="#8FABA6"/>
<path d="M42.125 50.0001C42.1252 51.4349 42.5171 52.8424 43.2584 54.0708C43.9998 55.2993 45.0624 56.302 46.3318 56.9708C47.6011 57.6397 49.029 57.9493 50.4614 57.8662C51.8938 57.7832 53.2764 57.3106 54.4599 56.4996C55.6432 55.6864 56.5818 54.5653 57.174 53.2573C57.7662 51.9494 57.9896 50.5044 57.8199 49.0787C57.774 48.7327 57.8212 48.3808 57.9565 48.0591C58.0919 47.7374 58.3105 47.4576 58.59 47.2485C58.8694 47.0394 59.1995 46.9085 59.5463 46.8694C59.8931 46.8303 60.2441 46.8843 60.563 47.0259C60.8819 47.1657 61.1581 47.3875 61.3633 47.6688C61.5685 47.9501 61.6954 48.2808 61.7312 48.6272C62.0164 51.0634 61.5361 53.5281 60.357 55.679C59.1779 57.8299 57.3585 59.5604 55.1512 60.6303C52.9439 61.7002 50.4583 62.0565 48.0394 61.6496C45.6205 61.2427 43.3882 60.0929 41.6524 58.3598C39.9167 56.6266 38.7635 54.3961 38.3529 51.9778C37.9424 49.5595 38.2948 47.0734 39.3614 44.8645C40.428 42.6556 42.1557 40.8335 44.3048 39.6512C46.4539 38.4688 48.9178 37.9848 51.3545 38.2663C51.6154 38.2905 51.8689 38.3666 52.1 38.49C52.3312 38.6134 52.5354 38.7818 52.7006 38.9851C52.8658 39.1885 52.9888 39.4228 53.0623 39.6743C53.1358 39.9258 53.1584 40.1895 53.1287 40.4498C53.099 40.7102 53.0176 40.9619 52.8893 41.1904C52.7611 41.4189 52.5885 41.6195 52.3817 41.7804C52.1749 41.9413 51.938 42.0593 51.685 42.1275C51.432 42.1957 51.1679 42.2127 50.9083 42.1776C49.8049 42.0494 48.6869 42.1562 47.6277 42.4908C46.5684 42.8255 45.592 43.3804 44.7625 44.1192C43.933 44.858 43.2691 45.7639 42.8146 46.7774C42.36 47.791 42.125 48.8892 42.125 50.0001Z" fill="#8FABA6"/>
<path d="M42.9289 9.8995C44.9689 7.85952 46.3596 6.4748 47.5385 5.57533C48.6713 4.71106 49.3705 4.48528 50 4.48528C50.6295 4.48528 51.3287 4.71106 52.4615 5.57532C53.6404 6.4748 55.0311 7.85951 57.0711 9.89949L90.1005 42.9289C92.1405 44.9689 93.5252 46.3596 94.4247 47.5385C95.2889 48.6713 95.5147 49.3705 95.5147 50C95.5147 50.6295 95.2889 51.3287 94.4247 52.4615C93.5252 53.6404 92.1405 55.0311 90.1005 57.0711L57.0711 90.1005C55.0311 92.1405 53.6404 93.5252 52.4615 94.4247C51.3287 95.2889 50.6295 95.5147 50 95.5147C49.3705 95.5147 48.6713 95.2889 47.5385 94.4247C46.3596 93.5252 44.9689 92.1405 42.9289 90.1005L9.8995 57.0711C7.85952 55.0311 6.4748 53.6404 5.57533 52.4615C4.71106 51.3287 4.48528 50.6295 4.48528 50C4.48528 49.3705 4.71106 48.6713 5.57532 47.5385C6.4748 46.3596 7.85951 44.9689 9.89949 42.9289L42.9289 9.8995Z" stroke="#8FABA6" stroke-width="4"/>
</svg>
