<svg width="100" height="100" viewBox="0 0 100 100" fill="none" xmlns="http://www.w3.org/2000/svg">
<path d="M38.9848 31.625C38.9304 31.6245 38.8767 31.6376 38.8285 31.663C38.7804 31.6884 38.7393 31.7254 38.7091 31.7707C38.6788 31.8159 38.6602 31.868 38.6551 31.9222C38.65 31.9764 38.6584 32.031 38.6796 32.0811L38.8683 32.5265L42.207 40.3113C42.2297 40.3643 42.2659 40.4103 42.312 40.4448C42.3581 40.4793 42.4125 40.5011 42.4697 40.5079C42.5269 40.5147 42.5849 40.5063 42.6379 40.4836C42.6908 40.4609 42.7369 40.4247 42.7714 40.3786L48.9335 32.15C48.9701 32.1013 48.9924 32.0433 48.9978 31.9826C49.0033 31.9219 48.9918 31.8609 48.9645 31.8064C48.9373 31.7519 48.8954 31.7061 48.8435 31.674C48.7917 31.642 48.732 31.625 48.671 31.625H38.9848ZM63.4473 33.7627L60.0611 41.6681C60.0398 41.718 60.0312 41.7724 60.0361 41.8265C60.041 41.8805 60.0592 41.9325 60.0891 41.9778C60.119 42.023 60.1597 42.0602 60.2075 42.0859C60.2553 42.1116 60.3087 42.125 60.363 42.125H68.6481C68.7066 42.125 68.7641 42.1094 68.8145 42.0798C68.8649 42.0501 68.9065 42.0076 68.935 41.9564C68.9634 41.9053 68.9777 41.8475 68.9763 41.789C68.9749 41.7306 68.9579 41.6735 68.927 41.6238L64.0273 33.7193C63.9956 33.6684 63.9506 33.6271 63.8972 33.6C63.8438 33.5729 63.7839 33.5609 63.7241 33.5654C63.6644 33.5699 63.607 33.5906 63.5582 33.6254C63.5094 33.6602 63.471 33.7077 63.4473 33.7627ZM35.9726 33.7226L31.0745 41.6238C31.0437 41.6735 31.0266 41.7306 31.0252 41.789C31.0238 41.8475 31.0381 41.9053 31.0666 41.9564C31.095 42.0076 31.1366 42.0501 31.187 42.0798C31.2375 42.1094 31.2949 42.125 31.3534 42.125H39.6386C39.6929 42.1249 39.7463 42.1114 39.7941 42.0856C39.8419 42.0598 39.8825 42.0226 39.9123 41.9772C39.9422 41.9318 39.9603 41.8798 39.9651 41.8257C39.9698 41.7716 39.9611 41.7172 39.9396 41.6673L36.5468 33.766C36.5226 33.7124 36.4843 33.6662 36.436 33.6324C36.3878 33.5986 36.3313 33.5785 36.2726 33.574C36.2139 33.5696 36.155 33.581 36.1022 33.6071C36.0495 33.6333 36.0047 33.6731 35.9726 33.7226ZM61.2604 31.625H50.9696C50.9399 31.6248 50.9107 31.6329 50.8854 31.6485C50.8601 31.664 50.8396 31.6863 50.8263 31.7128C50.813 31.7393 50.8073 31.7691 50.81 31.7986C50.8128 31.8282 50.8237 31.8564 50.8416 31.8801L57.3975 40.6132C57.4143 40.6356 57.4366 40.6532 57.4623 40.6643C57.488 40.6753 57.5162 40.6794 57.544 40.676C57.5718 40.6727 57.5982 40.6621 57.6206 40.6453C57.643 40.6285 57.6605 40.6061 57.6715 40.5804L61.1234 32.5274L61.4023 31.8432C61.4121 31.8197 61.4161 31.7942 61.4139 31.7689C61.4117 31.7435 61.4034 31.719 61.3897 31.6976C61.376 31.6761 61.3573 31.6583 61.3352 31.6457C61.3131 31.6331 61.2883 31.626 61.2628 31.625H61.2604ZM48.6054 65.75L41.2694 44.9559C41.2478 44.8955 41.2081 44.8433 41.1557 44.8064C41.1032 44.7696 41.0406 44.7498 40.9765 44.75H31.1082C31.051 44.7498 30.9949 44.7657 30.9464 44.7959C30.8978 44.826 30.8587 44.8692 30.8334 44.9205C30.8082 44.9718 30.7979 45.0292 30.8037 45.0861C30.8095 45.1429 30.8311 45.197 30.8662 45.2422L48.5849 68.1954C48.6449 68.273 48.7305 68.327 48.8264 68.3475C48.9224 68.3681 49.0225 68.354 49.1091 68.3077C49.1961 68.2619 49.2638 68.1864 49.2998 68.0948C49.3358 68.0033 49.3377 67.9018 49.3051 67.809L48.6054 65.75ZM68.8917 44.75H59.0234C58.9596 44.75 58.8974 44.7698 58.8454 44.8067C58.7934 44.8436 58.7541 44.8957 58.733 44.9559L50.6775 67.7737C50.6437 67.8695 50.6451 67.9742 50.6815 68.0691C50.7178 68.1639 50.7868 68.2427 50.876 68.2913C50.9653 68.3397 51.0688 68.3547 51.1681 68.3339C51.2674 68.313 51.3561 68.2575 51.4183 68.1773L69.1337 45.2422C69.1688 45.197 69.1904 45.1429 69.1962 45.0861C69.202 45.0292 69.1917 44.9718 69.1665 44.9205C69.1412 44.8692 69.1021 44.826 69.0535 44.7959C69.005 44.7657 68.9489 44.7498 68.8917 44.75ZM50.2624 35.4747L54.8562 41.6C54.8928 41.6488 54.915 41.7067 54.9205 41.7674C54.926 41.8281 54.9144 41.8891 54.8872 41.9436C54.8599 41.9981 54.818 42.044 54.7662 42.076C54.7144 42.108 54.6546 42.125 54.5937 42.125H45.4062C45.3453 42.125 45.2855 42.108 45.2337 42.076C45.1819 42.044 45.14 41.9981 45.1127 41.9436C45.0855 41.8891 45.0739 41.8281 45.0794 41.7674C45.0849 41.7067 45.1071 41.6488 45.1437 41.6L49.7374 35.4747C49.768 35.434 49.8076 35.4009 49.8532 35.3781C49.8988 35.3554 49.949 35.3435 49.9999 35.3435C50.0509 35.3435 50.1011 35.3554 50.1467 35.3781C50.1923 35.4009 50.2319 35.434 50.2624 35.4747ZM49.6882 60.9299L44.1347 45.1872C44.1173 45.1378 44.1119 45.0848 44.1192 45.0329C44.1264 44.9809 44.146 44.9315 44.1763 44.8887C44.2066 44.8458 44.2467 44.8109 44.2933 44.7868C44.3398 44.7627 44.3915 44.75 44.444 44.75H55.5559C55.6084 44.75 55.6601 44.7627 55.7066 44.7868C55.7532 44.8109 55.7933 44.8458 55.8236 44.8887C55.8539 44.9315 55.8735 44.9809 55.8807 45.0329C55.8879 45.0848 55.8826 45.1378 55.8652 45.1872L50.3092 60.9299C50.2865 60.9938 50.2446 61.0491 50.1893 61.0882C50.1339 61.1273 50.0677 61.1483 49.9999 61.1483C49.9321 61.1483 49.866 61.1273 49.8106 61.0882C49.7552 61.0491 49.7133 60.9938 49.6907 60.9299H49.6882Z" fill="#8FABA6"/>
<path d="M42.9289 9.8995C44.9689 7.85952 46.3596 6.4748 47.5385 5.57533C48.6713 4.71106 49.3705 4.48528 50 4.48528C50.6295 4.48528 51.3287 4.71106 52.4615 5.57532C53.6404 6.4748 55.0311 7.85951 57.0711 9.89949L90.1005 42.9289C92.1405 44.9689 93.5252 46.3596 94.4247 47.5385C95.2889 48.6713 95.5147 49.3705 95.5147 50C95.5147 50.6295 95.2889 51.3287 94.4247 52.4615C93.5252 53.6404 92.1405 55.0311 90.1005 57.0711L57.0711 90.1005C55.0311 92.1405 53.6404 93.5252 52.4615 94.4247C51.3287 95.2889 50.6295 95.5147 50 95.5147C49.3705 95.5147 48.6713 95.2889 47.5385 94.4247C46.3596 93.5252 44.9689 92.1405 42.9289 90.1005L9.8995 57.0711C7.85952 55.0311 6.4748 53.6404 5.57533 52.4615C4.71106 51.3287 4.48528 50.6295 4.48528 50C4.48528 49.3705 4.71106 48.6713 5.57532 47.5385C6.4748 46.3596 7.85951 44.9689 9.89949 42.9289L42.9289 9.8995Z" stroke="#8FABA6" stroke-width="4"/>
</svg>
