<svg width="100" height="100" viewBox="0 0 100 100" fill="none" xmlns="http://www.w3.org/2000/svg">
<path fill-rule="evenodd" clip-rule="evenodd" d="M42.059 32.804C42.629 32.6278 43.2458 32.6852 43.7735 32.9637C44.3012 33.2422 44.6967 33.7189 44.873 34.289L46.094 38.243C47.3823 38.0054 48.6899 37.8869 50 37.889C51.38 37.889 52.685 38.015 53.906 38.243L55.127 34.289C55.3032 33.7185 55.6988 33.2414 56.2268 32.9626C56.7549 32.6838 57.372 32.6262 57.9425 32.8025C58.5129 32.9787 58.99 33.3743 59.2688 33.9023C59.5476 34.4303 59.6052 35.0475 59.429 35.618L58.211 39.554C60.551 40.562 62.489 41.924 64.049 43.334L67.004 40.379C67.4281 39.9689 67.9964 39.7418 68.5863 39.7467C69.1763 39.7515 69.7407 39.9879 70.1581 40.4049C70.5754 40.8218 70.8123 41.3861 70.8177 41.976C70.8231 42.5659 70.5966 43.1344 70.187 43.559L67.091 46.658C67.532 47.243 67.907 47.792 68.216 48.278C68.588 48.869 68.87 49.376 69.065 49.76C69.1876 50.002 69.2997 50.2492 69.401 50.501C69.4453 50.6214 69.4813 50.7447 69.509 50.87C69.5963 51.2995 69.5588 51.745 69.401 52.154C69.371 52.238 69.335 52.319 69.305 52.388C69.23 52.5593 69.15 52.7284 69.065 52.895C68.8047 53.4007 68.5214 53.8942 68.216 54.374C67.2414 55.9076 66.0972 57.3265 64.805 58.604C61.7 61.67 56.837 64.7659 50 64.7659C43.163 64.7659 38.3 61.673 35.198 58.61C33.9054 57.3306 32.7612 55.9096 31.787 54.374C31.4806 53.8942 31.1963 53.4007 30.935 52.895C30.8125 52.6528 30.7004 52.4056 30.599 52.154C30.5553 52.0326 30.5202 51.9083 30.494 51.782C30.4051 51.3527 30.4416 50.907 30.599 50.498C30.7004 50.2463 30.8125 49.9991 30.935 49.757C31.5042 48.6703 32.1656 47.6345 32.912 46.661L29.81 43.559C29.3999 43.1348 29.1728 42.5665 29.1777 41.9766C29.1825 41.3866 29.4189 40.8222 29.8359 40.4048C30.2528 39.9875 30.8171 39.7506 31.407 39.7452C31.997 39.7398 32.5654 39.9663 32.99 40.376L35.948 43.331C37.6744 41.7605 39.6465 40.4836 41.786 39.551L40.568 35.615C40.3918 35.0449 40.4492 34.4281 40.7277 33.9004C41.0062 33.3727 41.4829 32.9772 42.053 32.801L42.059 32.804ZM48.581 57.518C50.2232 57.8939 51.9475 57.6021 53.3745 56.7067C54.8016 55.8113 55.8145 54.3857 56.1905 52.7435C56.5664 51.1012 56.2746 49.3769 55.3792 47.9499C54.4838 46.5228 53.0582 45.5099 51.416 45.134C50.6028 44.9478 49.761 44.9236 48.9385 45.0628C48.116 45.202 47.329 45.5019 46.6224 45.9452C45.1953 46.8406 44.1824 48.2662 43.8065 49.9085C43.4305 51.5507 43.7223 53.275 44.6177 54.702C45.5131 56.1291 46.9387 57.142 48.581 57.518Z" fill="#8FABA6"/>
<path d="M42.9289 9.8995C44.9689 7.85952 46.3596 6.4748 47.5385 5.57533C48.6713 4.71106 49.3705 4.48528 50 4.48528C50.6295 4.48528 51.3287 4.71106 52.4615 5.57532C53.6404 6.4748 55.0311 7.85951 57.0711 9.89949L90.1005 42.9289C92.1405 44.9689 93.5252 46.3596 94.4247 47.5385C95.2889 48.6713 95.5147 49.3705 95.5147 50C95.5147 50.6295 95.2889 51.3287 94.4247 52.4615C93.5252 53.6404 92.1405 55.0311 90.1005 57.0711L57.0711 90.1005C55.0311 92.1405 53.6404 93.5252 52.4615 94.4247C51.3287 95.2889 50.6295 95.5147 50 95.5147C49.3705 95.5147 48.6713 95.2889 47.5385 94.4247C46.3596 93.5252 44.9689 92.1405 42.9289 90.1005L9.8995 57.0711C7.85952 55.0311 6.4748 53.6404 5.57533 52.4615C4.71106 51.3287 4.48528 50.6295 4.48528 50C4.48528 49.3705 4.71106 48.6713 5.57532 47.5385C6.4748 46.3596 7.85951 44.9689 9.89949 42.9289L42.9289 9.8995Z" stroke="#8FABA6" stroke-width="4"/>
</svg>
